<svg width="107" height="23" viewBox="0 0 107 23" fill="none" xmlns="http://www.w3.org/2000/svg">
<path d="M7.41016 22L2.24219 4.95117H0.259766V0.234375H12.4824V4.95117H10.2266L12.9883 15.2871L17.3359 0.234375H22.709L26.8926 15.4375L29.7637 4.95117H27.4941V0.234375H36.5449V4.95117H34.5625L29.3945 22H21.5469L18.498 11.7598L15.3945 22H7.41016ZM35.9023 22V17.2832H37.8848L41.9727 4.95117H39.0332V0.234375H52.541L57.6543 17.2832H59.6367V22H47.373V17.2832H49.6289L49 14.8906H43.3672L42.6562 17.2832H44.9121V22H35.9023ZM44.3789 11.4727H48.0977L46.3613 4.82812L44.3789 11.4727ZM60.6758 22V17.2832H63V4.95117H60.6758V0.234375H72.4336V4.95117H70.1094V17.2832H72.4336V22H60.6758ZM77.3418 22V17.2832H81.3066V4.67773H78.8594L78.3125 9.28516H73.8008V0.234375H95.9219V9.28516H91.4102L90.8633 4.67773H88.416V17.2832H92.3809V22H77.3418ZM99.8047 14.5488L98.2598 5.70312V0.234375H106.572V5.70312L105.027 14.5215L99.8047 14.5488ZM102.416 22.3691C101.258 22.3691 100.329 22.0547 99.627 21.4258C98.9251 20.7969 98.5742 19.9492 98.5742 18.8828C98.5742 17.8255 98.9251 16.9915 99.627 16.3809C100.329 15.7702 101.258 15.4648 102.416 15.4648C103.583 15.4648 104.512 15.7702 105.205 16.3809C105.907 16.9915 106.258 17.8255 106.258 18.8828C106.258 19.9492 105.907 20.7969 105.205 21.4258C104.503 22.0547 103.574 22.3691 102.416 22.3691Z" fill="white"/>
</svg>
